<?xml version="1.0" standalone="no"?><svg xmlns="http://www.w3.org/2000/svg" viewBox="0 0 1440 320"><path fill="#d8effc" fill-opacity="1" d="M0,64L26.7,53.3C53.3,43,107,21,160,42.7C213.3,64,267,128,320,149.3C373.3,171,427,149,480,122.7C533.3,96,587,64,640,64C693.3,64,747,96,800,101.3C853.3,107,907,85,960,112C1013.3,139,1067,213,1120,202.7C1173.3,192,1227,96,1280,64C1333.3,32,1387,64,1413,80L1440,96L1440,0L1413.3,0C1386.7,0,1333,0,1280,0C1226.7,0,1173,0,1120,0C1066.7,0,1013,0,960,0C906.7,0,853,0,800,0C746.7,0,693,0,640,0C586.7,0,533,0,480,0C426.7,0,373,0,320,0C266.7,0,213,0,160,0C106.7,0,53,0,27,0L0,0Z"></path></svg>